<mxfile host="app.diagrams.net" modified="2024-02-01T14:55:59.133Z" agent="Mozilla/5.0 (Windows NT 10.0; Win64; x64) AppleWebKit/537.36 (KHTML, like Gecko) Chrome/120.0.0.0 Safari/537.36" etag="3BUf2PAPG2AaDI78N52U" version="22.1.20" type="device">
  <diagram name="Page-1" id="42789a77-a242-8287-6e28-9cd8cfd52e62">
    <mxGraphModel dx="1434" dy="772" grid="1" gridSize="10" guides="1" tooltips="1" connect="1" arrows="1" fold="1" page="1" pageScale="1" pageWidth="1100" pageHeight="850" background="none" math="0" shadow="0">
      <root>
        <mxCell id="0" />
        <mxCell id="1" parent="0" />
        <mxCell id="1ea317790d2ca983-12" value="" style="edgeStyle=none;rounded=1;html=1;labelBackgroundColor=none;startArrow=none;startFill=0;startSize=5;endArrow=classicThin;endFill=1;endSize=5;jettySize=auto;orthogonalLoop=1;strokeWidth=1;fontFamily=Verdana;fontSize=12;entryX=0.5;entryY=0;entryDx=0;entryDy=0;sketch=1;curveFitting=1;jiggle=2;fontColor=default;strokeColor=#736CA8;fontStyle=1" parent="1" target="IdqzG0GVRAmIBPS-DW4z-3" edge="1">
          <mxGeometry relative="1" as="geometry">
            <mxPoint x="495" y="140" as="sourcePoint" />
            <mxPoint x="495" y="190" as="targetPoint" />
          </mxGeometry>
        </mxCell>
        <mxCell id="1ea317790d2ca983-13" value="" style="edgeStyle=none;rounded=1;html=1;labelBackgroundColor=none;startArrow=none;startFill=0;startSize=5;endArrow=classicThin;endFill=1;endSize=5;jettySize=auto;orthogonalLoop=1;strokeWidth=1;fontFamily=Verdana;fontSize=12;entryX=0.5;entryY=0;entryDx=0;entryDy=0;sketch=1;curveFitting=1;jiggle=2;fontColor=default;strokeColor=#736CA8;fontStyle=1" parent="1" target="IdqzG0GVRAmIBPS-DW4z-4" edge="1">
          <mxGeometry relative="1" as="geometry">
            <mxPoint x="457.0097887475174" y="126.07957778593448" as="sourcePoint" />
            <mxPoint x="286.96000000000004" y="207" as="targetPoint" />
          </mxGeometry>
        </mxCell>
        <mxCell id="IdqzG0GVRAmIBPS-DW4z-50" value="includes" style="edgeLabel;html=1;align=center;verticalAlign=middle;resizable=0;points=[];fontSize=20;fontFamily=Architects Daughter;fontColor=#1A1A1A;labelBackgroundColor=none;fontStyle=1" vertex="1" connectable="0" parent="1ea317790d2ca983-13">
          <mxGeometry x="0.0128" y="1" relative="1" as="geometry">
            <mxPoint as="offset" />
          </mxGeometry>
        </mxCell>
        <mxCell id="1ea317790d2ca983-14" value="" style="edgeStyle=none;rounded=1;html=1;labelBackgroundColor=none;startArrow=none;startFill=0;startSize=5;endArrow=classicThin;endFill=1;endSize=5;jettySize=auto;orthogonalLoop=1;strokeWidth=1;fontFamily=Verdana;fontSize=12;entryX=0.5;entryY=0;entryDx=0;entryDy=0;sketch=1;curveFitting=1;jiggle=2;fontColor=default;strokeColor=#736CA8;fontStyle=1" parent="1" target="IdqzG0GVRAmIBPS-DW4z-5" edge="1">
          <mxGeometry relative="1" as="geometry">
            <mxPoint x="532.7830590027868" y="126.2950633613915" as="sourcePoint" />
            <mxPoint x="706.0161191067814" y="201.41871804606262" as="targetPoint" />
          </mxGeometry>
        </mxCell>
        <mxCell id="IdqzG0GVRAmIBPS-DW4z-14" style="edgeStyle=orthogonalEdgeStyle;rounded=0;sketch=1;hachureGap=4;jiggle=2;curveFitting=1;orthogonalLoop=1;jettySize=auto;html=1;exitX=1;exitY=0.5;exitDx=0;exitDy=0;strokeColor=#736CA8;fontFamily=Architects Daughter;fontSource=https%3A%2F%2Ffonts.googleapis.com%2Fcss%3Ffamily%3DArchitects%2BDaughter;fontSize=16;fontColor=#1A1A1A;entryX=0.5;entryY=0;entryDx=0;entryDy=0;fontStyle=1" edge="1" parent="1" source="IdqzG0GVRAmIBPS-DW4z-1" target="IdqzG0GVRAmIBPS-DW4z-17">
          <mxGeometry relative="1" as="geometry">
            <mxPoint x="950" y="240" as="targetPoint" />
          </mxGeometry>
        </mxCell>
        <mxCell id="IdqzG0GVRAmIBPS-DW4z-15" style="edgeStyle=orthogonalEdgeStyle;rounded=0;sketch=1;hachureGap=4;jiggle=2;curveFitting=1;orthogonalLoop=1;jettySize=auto;html=1;exitX=0;exitY=0.5;exitDx=0;exitDy=0;strokeColor=#736CA8;fontFamily=Architects Daughter;fontSource=https%3A%2F%2Ffonts.googleapis.com%2Fcss%3Ffamily%3DArchitects%2BDaughter;fontSize=16;fontColor=#1A1A1A;entryX=0.5;entryY=0;entryDx=0;entryDy=0;fontStyle=1" edge="1" parent="1" source="IdqzG0GVRAmIBPS-DW4z-1" target="IdqzG0GVRAmIBPS-DW4z-18">
          <mxGeometry relative="1" as="geometry">
            <mxPoint x="80" y="240" as="targetPoint" />
          </mxGeometry>
        </mxCell>
        <mxCell id="IdqzG0GVRAmIBPS-DW4z-1" value="&lt;p align=&quot;center&quot; class=&quot;MsoNormal&quot;&gt;&lt;span&gt;An Intelligent Approach for Oral Cancer Diagnosis&lt;/span&gt;&lt;/p&gt;" style="rounded=1;whiteSpace=wrap;html=1;sketch=1;curveFitting=1;jiggle=2;labelBackgroundColor=none;fillColor=#5D7F99;strokeColor=#D0CEE2;fontColor=#1A1A1A;fontStyle=1" vertex="1" parent="1">
          <mxGeometry x="382.5" y="80" width="225" height="60" as="geometry" />
        </mxCell>
        <mxCell id="IdqzG0GVRAmIBPS-DW4z-3" value="&lt;span&gt;Users&lt;/span&gt;" style="rounded=1;whiteSpace=wrap;html=1;sketch=1;curveFitting=1;jiggle=2;labelBackgroundColor=none;fillColor=#5D7F99;strokeColor=#D0CEE2;fontColor=#1A1A1A;fontStyle=1" vertex="1" parent="1">
          <mxGeometry x="435" y="300" width="120" height="60" as="geometry" />
        </mxCell>
        <mxCell id="IdqzG0GVRAmIBPS-DW4z-4" value="&lt;p style=&quot;margin-top: 0pt; margin-bottom: 0pt; margin-left: 0in; direction: ltr; unicode-bidi: embed; word-break: normal;&quot;&gt;Interactive&lt;br&gt;Health Ai&amp;nbsp; Polls&lt;/p&gt;" style="rounded=1;whiteSpace=wrap;html=1;sketch=1;curveFitting=1;jiggle=2;labelBackgroundColor=none;fillColor=#5D7F99;strokeColor=#D0CEE2;fontColor=#1A1A1A;fontStyle=1" vertex="1" parent="1">
          <mxGeometry x="200" y="290" width="120" height="60" as="geometry" />
        </mxCell>
        <mxCell id="IdqzG0GVRAmIBPS-DW4z-5" value="&lt;span&gt;Oral Cancer Detection Model&lt;/span&gt;" style="rounded=1;whiteSpace=wrap;html=1;sketch=1;curveFitting=1;jiggle=2;labelBackgroundColor=none;fillColor=#5D7F99;strokeColor=#D0CEE2;fontColor=#1A1A1A;fontStyle=1" vertex="1" parent="1">
          <mxGeometry x="660" y="290" width="120" height="60" as="geometry" />
        </mxCell>
        <mxCell id="IdqzG0GVRAmIBPS-DW4z-9" style="edgeStyle=orthogonalEdgeStyle;rounded=0;orthogonalLoop=1;jettySize=auto;html=1;exitX=0;exitY=0.5;exitDx=0;exitDy=0;entryX=1.058;entryY=0.667;entryDx=0;entryDy=0;entryPerimeter=0;sketch=1;curveFitting=1;jiggle=2;labelBackgroundColor=none;fontColor=default;strokeColor=#736CA8;fontStyle=1" edge="1" parent="1" source="IdqzG0GVRAmIBPS-DW4z-3" target="IdqzG0GVRAmIBPS-DW4z-4">
          <mxGeometry relative="1" as="geometry" />
        </mxCell>
        <mxCell id="IdqzG0GVRAmIBPS-DW4z-35" style="edgeStyle=orthogonalEdgeStyle;rounded=0;sketch=1;hachureGap=4;jiggle=2;curveFitting=1;orthogonalLoop=1;jettySize=auto;html=1;entryX=1;entryY=0.5;entryDx=0;entryDy=0;strokeColor=#736CA8;fontFamily=Architects Daughter;fontSource=https%3A%2F%2Ffonts.googleapis.com%2Fcss%3Ffamily%3DArchitects%2BDaughter;fontSize=16;fontColor=#1A1A1A;verticalAlign=bottom;exitX=0.5;exitY=1;exitDx=0;exitDy=0;fontStyle=1" edge="1" parent="1" source="IdqzG0GVRAmIBPS-DW4z-17" target="IdqzG0GVRAmIBPS-DW4z-5">
          <mxGeometry relative="1" as="geometry" />
        </mxCell>
        <mxCell id="IdqzG0GVRAmIBPS-DW4z-36" value="&lt;font style=&quot;font-size: 16px;&quot;&gt;validate the diagnostic &lt;/font&gt;" style="edgeLabel;html=1;align=center;verticalAlign=middle;resizable=0;points=[];fontSize=20;fontFamily=Architects Daughter;fontColor=#1A1A1A;labelBackgroundColor=none;fontStyle=1" vertex="1" connectable="0" parent="IdqzG0GVRAmIBPS-DW4z-35">
          <mxGeometry x="0.2" y="4" relative="1" as="geometry">
            <mxPoint x="54" y="6" as="offset" />
          </mxGeometry>
        </mxCell>
        <mxCell id="IdqzG0GVRAmIBPS-DW4z-17" value="Healthcare Providers" style="rounded=1;whiteSpace=wrap;html=1;sketch=1;curveFitting=1;jiggle=2;labelBackgroundColor=none;fillColor=#5D7F99;strokeColor=#D0CEE2;fontColor=#1A1A1A;fontStyle=1" vertex="1" parent="1">
          <mxGeometry x="810" y="210" width="120" height="60" as="geometry" />
        </mxCell>
        <mxCell id="IdqzG0GVRAmIBPS-DW4z-44" style="edgeStyle=orthogonalEdgeStyle;rounded=0;sketch=1;hachureGap=4;jiggle=2;curveFitting=1;orthogonalLoop=1;jettySize=auto;html=1;strokeColor=#736CA8;fontFamily=Architects Daughter;fontSource=https%3A%2F%2Ffonts.googleapis.com%2Fcss%3Ffamily%3DArchitects%2BDaughter;fontSize=16;fontColor=#1A1A1A;fontStyle=1" edge="1" parent="1" source="IdqzG0GVRAmIBPS-DW4z-18">
          <mxGeometry relative="1" as="geometry">
            <mxPoint x="490" y="370" as="targetPoint" />
          </mxGeometry>
        </mxCell>
        <mxCell id="IdqzG0GVRAmIBPS-DW4z-45" style="edgeStyle=orthogonalEdgeStyle;rounded=0;sketch=1;hachureGap=4;jiggle=2;curveFitting=1;orthogonalLoop=1;jettySize=auto;html=1;exitX=1;exitY=0.5;exitDx=0;exitDy=0;entryX=0.5;entryY=1;entryDx=0;entryDy=0;strokeColor=#736CA8;fontFamily=Architects Daughter;fontSource=https%3A%2F%2Ffonts.googleapis.com%2Fcss%3Ffamily%3DArchitects%2BDaughter;fontSize=16;fontColor=#1A1A1A;fontStyle=1" edge="1" parent="1" source="IdqzG0GVRAmIBPS-DW4z-18" target="IdqzG0GVRAmIBPS-DW4z-5">
          <mxGeometry relative="1" as="geometry" />
        </mxCell>
        <mxCell id="IdqzG0GVRAmIBPS-DW4z-46" style="edgeStyle=orthogonalEdgeStyle;rounded=0;sketch=1;hachureGap=4;jiggle=2;curveFitting=1;orthogonalLoop=1;jettySize=auto;html=1;exitX=1;exitY=0.5;exitDx=0;exitDy=0;entryX=0.5;entryY=1;entryDx=0;entryDy=0;strokeColor=#736CA8;fontFamily=Architects Daughter;fontSource=https%3A%2F%2Ffonts.googleapis.com%2Fcss%3Ffamily%3DArchitects%2BDaughter;fontSize=16;fontColor=#1A1A1A;fontStyle=1" edge="1" parent="1" source="IdqzG0GVRAmIBPS-DW4z-18" target="IdqzG0GVRAmIBPS-DW4z-17">
          <mxGeometry relative="1" as="geometry" />
        </mxCell>
        <mxCell id="IdqzG0GVRAmIBPS-DW4z-18" value="&lt;span&gt;System Administrators&lt;/span&gt;" style="rounded=1;whiteSpace=wrap;html=1;sketch=1;curveFitting=1;jiggle=2;labelBackgroundColor=none;fillColor=#5D7F99;strokeColor=#D0CEE2;fontColor=#1A1A1A;fontStyle=1" vertex="1" parent="1">
          <mxGeometry x="80" y="430" width="200" height="60" as="geometry" />
        </mxCell>
        <mxCell id="IdqzG0GVRAmIBPS-DW4z-22" value="&lt;font style=&quot;font-size: 16px;&quot;&gt;interact&lt;/font&gt;" style="text;html=1;align=center;verticalAlign=middle;resizable=0;points=[];autosize=1;strokeColor=none;fillColor=none;fontSize=20;fontFamily=Architects Daughter;fontColor=#1A1A1A;fontStyle=1" vertex="1" parent="1">
          <mxGeometry x="340" y="303" width="80" height="40" as="geometry" />
        </mxCell>
        <mxCell id="IdqzG0GVRAmIBPS-DW4z-11" style="edgeStyle=orthogonalEdgeStyle;rounded=0;orthogonalLoop=1;jettySize=auto;html=1;exitX=1;exitY=0.5;exitDx=0;exitDy=0;entryX=0.017;entryY=0.65;entryDx=0;entryDy=0;entryPerimeter=0;sketch=1;curveFitting=1;jiggle=2;labelBackgroundColor=none;fontColor=default;strokeColor=#736CA8;fontStyle=1" edge="1" parent="1" source="IdqzG0GVRAmIBPS-DW4z-3" target="IdqzG0GVRAmIBPS-DW4z-5">
          <mxGeometry relative="1" as="geometry" />
        </mxCell>
        <mxCell id="IdqzG0GVRAmIBPS-DW4z-25" value="&lt;font style=&quot;font-size: 16px;&quot;&gt; upload data&lt;/font&gt;" style="edgeLabel;html=1;align=center;verticalAlign=middle;resizable=0;points=[];fontSize=20;fontFamily=Architects Daughter;fontColor=#1A1A1A;labelBackgroundColor=none;fontStyle=1" vertex="1" connectable="0" parent="IdqzG0GVRAmIBPS-DW4z-11">
          <mxGeometry x="-0.0096" relative="1" as="geometry">
            <mxPoint y="-9" as="offset" />
          </mxGeometry>
        </mxCell>
        <mxCell id="IdqzG0GVRAmIBPS-DW4z-27" style="edgeStyle=orthogonalEdgeStyle;rounded=0;sketch=1;hachureGap=4;jiggle=2;curveFitting=1;orthogonalLoop=1;jettySize=auto;html=1;exitX=1;exitY=0.25;exitDx=0;exitDy=0;entryX=-0.025;entryY=0.117;entryDx=0;entryDy=0;entryPerimeter=0;strokeColor=#736CA8;fontFamily=Architects Daughter;fontSource=https%3A%2F%2Ffonts.googleapis.com%2Fcss%3Ffamily%3DArchitects%2BDaughter;fontSize=16;fontColor=#1A1A1A;fontStyle=1" edge="1" parent="1" source="IdqzG0GVRAmIBPS-DW4z-4" target="IdqzG0GVRAmIBPS-DW4z-3">
          <mxGeometry relative="1" as="geometry" />
        </mxCell>
        <mxCell id="IdqzG0GVRAmIBPS-DW4z-28" value="&lt;font style=&quot;font-size: 16px;&quot;&gt;responses&lt;/font&gt;" style="edgeLabel;html=1;align=center;verticalAlign=middle;resizable=0;points=[];fontSize=20;fontFamily=Architects Daughter;fontColor=#1A1A1A;labelBackgroundColor=none;fontStyle=1" vertex="1" connectable="0" parent="IdqzG0GVRAmIBPS-DW4z-27">
          <mxGeometry x="-0.1228" y="3" relative="1" as="geometry">
            <mxPoint x="10" y="-12" as="offset" />
          </mxGeometry>
        </mxCell>
        <mxCell id="IdqzG0GVRAmIBPS-DW4z-31" style="edgeStyle=orthogonalEdgeStyle;rounded=0;sketch=1;hachureGap=4;jiggle=2;curveFitting=1;orthogonalLoop=1;jettySize=auto;html=1;exitX=0;exitY=0.25;exitDx=0;exitDy=0;entryX=1.033;entryY=0.133;entryDx=0;entryDy=0;entryPerimeter=0;strokeColor=#736CA8;fontFamily=Architects Daughter;fontSource=https%3A%2F%2Ffonts.googleapis.com%2Fcss%3Ffamily%3DArchitects%2BDaughter;fontSize=16;fontColor=#1A1A1A;fontStyle=1" edge="1" parent="1" source="IdqzG0GVRAmIBPS-DW4z-5" target="IdqzG0GVRAmIBPS-DW4z-3">
          <mxGeometry relative="1" as="geometry" />
        </mxCell>
        <mxCell id="IdqzG0GVRAmIBPS-DW4z-32" value="&lt;font style=&quot;font-size: 16px;&quot;&gt;diagnostic &lt;/font&gt;" style="text;html=1;align=center;verticalAlign=middle;resizable=0;points=[];autosize=1;strokeColor=none;fillColor=none;fontSize=20;fontFamily=Architects Daughter;fontColor=#1A1A1A;fontStyle=1" vertex="1" parent="1">
          <mxGeometry x="570" y="270" width="90" height="40" as="geometry" />
        </mxCell>
        <mxCell id="IdqzG0GVRAmIBPS-DW4z-47" style="edgeStyle=orthogonalEdgeStyle;rounded=0;sketch=1;hachureGap=4;jiggle=2;curveFitting=1;orthogonalLoop=1;jettySize=auto;html=1;exitX=1;exitY=0.5;exitDx=0;exitDy=0;entryX=0.908;entryY=1.067;entryDx=0;entryDy=0;entryPerimeter=0;strokeColor=#736CA8;fontFamily=Architects Daughter;fontSource=https%3A%2F%2Ffonts.googleapis.com%2Fcss%3Ffamily%3DArchitects%2BDaughter;fontSize=16;fontColor=#1A1A1A;fontStyle=1" edge="1" parent="1" source="IdqzG0GVRAmIBPS-DW4z-18" target="IdqzG0GVRAmIBPS-DW4z-4">
          <mxGeometry relative="1" as="geometry" />
        </mxCell>
        <mxCell id="IdqzG0GVRAmIBPS-DW4z-48" value="oversee" style="edgeLabel;html=1;align=center;verticalAlign=middle;resizable=0;points=[];fontSize=20;fontFamily=Architects Daughter;fontColor=#1A1A1A;labelBackgroundColor=none;fontStyle=1" vertex="1" connectable="0" parent="IdqzG0GVRAmIBPS-DW4z-47">
          <mxGeometry x="-0.6592" y="1" relative="1" as="geometry">
            <mxPoint x="17" y="11" as="offset" />
          </mxGeometry>
        </mxCell>
        <mxCell id="IdqzG0GVRAmIBPS-DW4z-51" value="includes" style="edgeLabel;html=1;align=center;verticalAlign=middle;resizable=0;points=[];fontSize=20;fontFamily=Architects Daughter;fontColor=#1A1A1A;labelBackgroundColor=none;fontStyle=1" vertex="1" connectable="0" parent="1">
          <mxGeometry x="494.99718557735855" y="209.9960776872848" as="geometry" />
        </mxCell>
        <mxCell id="IdqzG0GVRAmIBPS-DW4z-52" value="includes" style="edgeLabel;html=1;align=center;verticalAlign=middle;resizable=0;points=[];fontSize=20;fontFamily=Architects Daughter;fontColor=#1A1A1A;labelBackgroundColor=none;fontStyle=1" vertex="1" connectable="0" parent="1">
          <mxGeometry x="614.9971855773586" y="199.9960776872848" as="geometry" />
        </mxCell>
        <mxCell id="IdqzG0GVRAmIBPS-DW4z-53" value="includes" style="edgeLabel;html=1;align=center;verticalAlign=middle;resizable=0;points=[];fontSize=20;fontFamily=Architects Daughter;fontColor=#1A1A1A;labelBackgroundColor=none;fontStyle=1" vertex="1" connectable="0" parent="1">
          <mxGeometry x="179.99718557735858" y="209.9960776872848" as="geometry" />
        </mxCell>
      </root>
    </mxGraphModel>
  </diagram>
</mxfile>
